<svg fill="none" height="82" width="300" xmlns="http://www.w3.org/2000/svg" xmlns:xlink="http://www.w3.org/1999/xlink"><linearGradient id="a" gradientUnits="userSpaceOnUse" x1="47" x2="46.5" y1="10" y2="81.5"><stop offset="0" stop-color="#da1e5a"/><stop offset="1" stop-color="#f0582b"/></linearGradient><linearGradient id="b" gradientUnits="userSpaceOnUse" x1="15" x2="15.5" y1="9.968" y2="81.468"><stop offset="0" stop-color="#cf4547"/><stop offset="1" stop-color="#ae2b5b"/></linearGradient><linearGradient id="c"><stop offset="0" stop-color="#f1592a"/><stop offset="1" stop-color="#dd2955"/></linearGradient><linearGradient id="d" gradientUnits="userSpaceOnUse" x1="27" x2="16" xlink:href="#c" y1="27" y2="38"/><linearGradient id="e" gradientUnits="userSpaceOnUse" x1="27" x2="16" xlink:href="#c" y1="8" y2="19"/><linearGradient id="f" gradientUnits="userSpaceOnUse" x1="16" x2="8" xlink:href="#c" y2="8"/><linearGradient id="g" gradientUnits="userSpaceOnUse" x1="265.108" x2="256.746" xlink:href="#c" y1="20.398" y2="29.513"/><path d="m31 23.5v-13.5l31 18v35l-31 18.5v-36.5l19 12v-23z" fill="url(#a)"/><path clip-rule="evenodd" d="m12 21-12 6.968v35l31 18.5v-36.5l-19 12z" fill="url(#b)" fill-rule="evenodd"/><path d="m16 27h11v11h-11z" fill="url(#d)"/><path d="m16 8h11v11h-11z" fill="url(#e)"/><path d="m8 0h8v8h-8z" fill="url(#f)"/><path d="m74 51.546c0-1.983.553-3.719 1.66-5.206 1.105-1.488 2.631-2.651 4.577-3.49 1.945-.878 4.176-1.316 6.694-1.316 1.22 0 2.422.114 3.604.343 1.183.19 2.213.477 3.09.858v-1.315c0-1.64-.496-2.899-1.487-3.776-.992-.877-2.499-1.316-4.52-1.316-1.679 0-3.262.286-4.75.858-1.449.572-2.994 1.392-4.634 2.46l-2.746-5.836c1.983-1.296 4.043-2.27 6.179-2.918 2.174-.648 4.463-.972 6.866-.972 4.5 0 7.991 1.087 10.47 3.261 2.518 2.136 3.777 5.245 3.777 9.326v7.839c0 .915.133 1.564.4 1.945.305.343.82.553 1.545.63v7.61c-.763.152-1.488.266-2.174.343-.649.076-1.221.114-1.717.114-1.716 0-3.032-.343-3.948-1.03-.877-.687-1.43-1.621-1.659-2.803l-.172-1.316c-1.335 1.716-2.937 3.032-4.806 3.947a13.21 13.21 0 0 1 -5.778 1.316c-1.984 0-3.777-.42-5.379-1.258-1.564-.84-2.803-1.984-3.719-3.433-.915-1.451-1.373-3.071-1.373-4.865zm18.195 1.145c.42-.344.763-.725 1.03-1.145s.4-.82.4-1.201v-2.69a12.057 12.057 0 0 0 -2.575-.686 12.66 12.66 0 0 0 -2.574-.286c-1.679 0-3.07.382-4.177 1.144-1.106.725-1.66 1.698-1.66 2.918 0 .687.191 1.316.573 1.889.381.572.896 1.03 1.545 1.373.686.343 1.487.515 2.403.515.915 0 1.83-.172 2.746-.515.915-.344 1.678-.782 2.289-1.316zm23.684-22.2 5.321 8.468.572 1.087.572-1.087 5.321-8.468h9.441l-10.07 14.933 10.299 15.105h-9.441l-5.607-8.41-.515-1.088-.515 1.087-5.607 8.411h-9.441l10.299-14.933-10.07-15.105zm43.998 28.436c-.839.343-1.774.687-2.803 1.03-.992.343-2.041.61-3.147.801a16.072 16.072 0 0 1 -3.262.343c-1.525 0-2.937-.248-4.234-.743-1.258-.534-2.269-1.393-3.032-2.575-.725-1.183-1.087-2.746-1.087-4.692v-15.677h-3.834v-6.923h3.834v-9.555h9.154v9.555h6.123v6.923h-6.123v12.53c0 .992.248 1.717.744 2.174.496.42 1.125.63 1.888.63.649 0 1.335-.114 2.06-.343a12.262 12.262 0 0 0 1.945-.744zm22.62-20.597c-2.212 0-4.215.362-6.008 1.087-1.792.686-3.089 1.716-3.89 3.09v18.022h-9.155v-30.038h8.411v6.065c1.03-2.022 2.365-3.605 4.005-4.75 1.64-1.143 3.357-1.735 5.15-1.773h.915c.229 0 .42.02.572.057zm17.936 22.77c-2.555 0-4.844-.42-6.865-1.258-1.984-.84-3.662-1.984-5.035-3.433a15.087 15.087 0 0 1 -3.147-4.978 16.945 16.945 0 0 1 -1.03-5.893c0-2.098.343-4.082 1.03-5.95a15.09 15.09 0 0 1 3.147-4.979c1.373-1.449 3.051-2.593 5.035-3.433 2.021-.839 4.31-1.258 6.865-1.258 2.556 0 4.826.42 6.809 1.258 1.984.84 3.662 1.984 5.035 3.433a15.122 15.122 0 0 1 3.147 4.978c.725 1.87 1.087 3.853 1.087 5.95 0 2.06-.362 4.025-1.087 5.894a15.12 15.12 0 0 1 -3.147 4.978c-1.373 1.45-3.051 2.594-5.035 3.433-1.983.839-4.253 1.258-6.809 1.258zm-6.694-15.562c0 1.564.286 2.937.858 4.12.611 1.182 1.412 2.097 2.404 2.746.991.648 2.136.972 3.432.972 1.259 0 2.384-.324 3.376-.972 1.03-.687 1.831-1.622 2.403-2.804s.859-2.536.859-4.062c0-1.564-.287-2.937-.859-4.12-.572-1.182-1.373-2.098-2.403-2.746-.992-.649-2.117-.973-3.376-.973-1.296 0-2.441.324-3.432.973-.992.648-1.793 1.564-2.404 2.746-.572 1.183-.858 2.556-.858 4.12zm56.264 14.99h-9.155v-16.877c0-1.984-.381-3.414-1.144-4.292-.725-.915-1.698-1.373-2.918-1.373-.839 0-1.698.229-2.575.687-.877.457-1.678 1.087-2.403 1.888a8.946 8.946 0 0 0 -1.602 2.746v17.223h-9.155v-30.039h8.239v5.035a11.394 11.394 0 0 1 2.861-3.033c1.145-.839 2.461-1.468 3.948-1.888 1.488-.457 3.109-.686 4.864-.686 1.945 0 3.509.362 4.691 1.087 1.221.686 2.136 1.602 2.747 2.746a10.473 10.473 0 0 1 1.258 3.72c.229 1.296.344 2.574.344 3.833v19.224zm6.082 0v-30.037h9.155v30.038h-9.155zm29.783.572c-2.556 0-4.826-.42-6.809-1.258-1.984-.84-3.681-1.984-5.092-3.433a15.12 15.12 0 0 1 -3.147-4.978c-.725-1.87-1.087-3.853-1.087-5.95 0-2.747.629-5.303 1.888-7.667 1.297-2.365 3.147-4.273 5.55-5.722 2.403-1.45 5.302-2.174 8.697-2.174 3.433 0 6.332.744 8.696 2.231 2.404 1.45 4.196 3.357 5.379 5.722l-8.926 2.689a5.935 5.935 0 0 0 -2.231-2.117c-.878-.496-1.869-.744-2.976-.744-1.258 0-2.403.324-3.433.973-.991.648-1.792 1.545-2.403 2.689-.572 1.144-.858 2.517-.858 4.12 0 1.563.305 2.937.916 4.119.61 1.182 1.411 2.117 2.403 2.804.991.648 2.117.972 3.375.972.763 0 1.469-.114 2.117-.343a6.288 6.288 0 0 0 1.831-1.087c.573-.458 1.011-.973 1.316-1.545l8.926 2.747c-.725 1.526-1.774 2.9-3.147 4.12-1.335 1.182-2.918 2.117-4.749 2.804-1.831.686-3.91 1.03-6.236 1.03z" fill="#fff"/><path clip-rule="evenodd" d="m255.959 28.791v-8.393h9.149v8.393z" fill="url(#g)" fill-rule="evenodd"/></svg>